# xmcd
#
# Track frame offsets:
#	150
#	14637
#	26530
#	43526
#	54950
#	67872
#	84903
#	97972
#	111930
#	129549
#	142226
#	153419
#	169449
#	187096
#	200046
#	217651
#	232869
#	244923
#	263781
#	278369
#	291291
#	303835
#	318969
#
# Disc length: 4420 seconds
#
# Revision: 0
# Processed by: cddbd v1.5.2PL0 Copyright (c) Steve Scherf et al.
# Submitted via: EasyCDDAExtractor 15.2.5.1
#
DISCID=40114217
DTITLE=Various Artist - complete motown singles (v56)
DYEAR=1900
DGENRE=
TTITLE0=the jackson 5 - mama's pearl
TTITLE1=the jackson 5 - darling dear
TTITLE2=joe hinton - let's all save the children
TTITLE3=joe hinton - you are blue
TTITLE4=brass monkey - sweet water
TTITLE5=brass monkey - you keep me hangin' on
TTITLE6=chuck jackson - pet names
TTITLE7=chuck jackson - is there anything love can't do
TTITLE8=the temptations - just my imagination (running away with me)
TTITLE9=the temptations - you make your own heaven and hell right here on eart
TTITLE9=h
TTITLE10=r. dean taylor - ain't it a sad thing
TTITLE11=r. dean taylor - back street
TTITLE12=marvin gaye - what's going on
TTITLE13=marvin gaye - god is love
TTITLE14=undisputed truth - save my love for a rainy day
TTITLE15=undisputed truth - since i've lost you
TTITLE16=ken christie and the sunday people - don't pay me no mind
TTITLE17=ken christie and the sunday people - listen to your soul
TTITLE18=david ruffin - each day is a lifetime
TTITLE19=david ruffin - don't stop lovin' me
TTITLE20=kiki dee - love makes the world go 'round
TTITLE21=kiki dee - jimmy
TTITLE22=kiki dee - love makes the world go 'round [alternate mix]
EXTD=
EXTT0=
EXTT1=
EXTT2=
EXTT3=
EXTT4=
EXTT5=
EXTT6=
EXTT7=
EXTT8=
EXTT9=
EXTT10=
EXTT11=
EXTT12=
EXTT13=
EXTT14=
EXTT15=
EXTT16=
EXTT17=
EXTT18=
EXTT19=
EXTT20=
EXTT21=
EXTT22=
PLAYORDER=
